<?xml version="1.0" encoding="utf-8"?>
<!-- Generator: Adobe Illustrator 16.0.0, SVG Export Plug-In . SVG Version: 6.00 Build 0)  -->
<!DOCTYPE svg PUBLIC "-//W3C//DTD SVG 1.1//EN" "http://www.w3.org/Graphics/SVG/1.1/DTD/svg11.dtd">
<svg version="1.1" id="Layer_1" xmlns="http://www.w3.org/2000/svg" xmlns:xlink="http://www.w3.org/1999/xlink" x="0px" y="0px"
	 width="1462px" height="734px" viewBox="0 0 1462 734" enable-background="new 0 0 1462 734" xml:space="preserve">
<rect id="background" fill="#FFFFFF" width="0" height="0"/>
<script  xlink:href="/socket.io/socket.io.js"></script>
<script  xlink:href="/controller.js"></script>
<g id="pads">
	<g id="left-pad">
		
			<circle fill="#A8A8A8" stroke="#000000" stroke-width="4" stroke-linecap="round" stroke-linejoin="round" stroke-miterlimit="10" cx="-0.5" cy="-1.089" r="267.919"/>
		<polygon fill="#424242" points="189.908,-60.065 61.846,-60.065 61.846,-188.127 -62.846,-188.127 -62.846,-60.065 
			-190.908,-60.065 -190.908,64.626 -62.846,64.626 -62.846,192.689 61.846,192.689 61.846,64.626 189.908,64.626 		"/>
		<polygon fill="#1E1E1E" points="-0.5,-162.29 40.502,-91.082 -0.5,-91.082 -41.502,-91.082 		"/>
		<polygon fill="#1E1E1E" points="-0.5,174.153 -41.502,102.945 -0.5,102.945 40.502,102.945 		"/>
		<polygon fill="#1E1E1E" points="-168.721,2.281 -97.514,-38.721 -97.514,2.281 -97.514,43.283 		"/>
		<polygon fill="#1E1E1E" points="167.721,2.281 96.512,43.283 96.512,2.281 96.512,-38.722 		"/>
		<path id="dpad-left" fill="#00FF12" fill-opacity="0" d="M-188.242,190.023L-62.846,64.626v-124.69l-125.406-128.779h-3.349
			c-47.504,48.345-76.818,114.622-76.818,187.754C-268.419,73.75-237.719,141.412-188.242,190.023z"/>
		<path id="dpad-right" fill="#D45300" fill-opacity="0" d="M188.242-188.844L62.846-63.447V61.244l125.406,128.779h3.349
			c47.504-48.345,76.818-114.621,76.818-187.754C268.419-72.571,237.719-140.232,188.242-188.844z"/>
		<path id="dpad-up" fill="#0056E9" fill-opacity="0" d="M-189.434-187.652L-64.037-62.256H60.654l128.779-125.406v-3.349
			C141.088-238.515,74.812-267.83,1.679-267.83C-73.161-267.83-140.822-237.13-189.434-187.652z"/>
		<path id="dpad-down" fill="#F6FF6A" fill-opacity="0" d="M189.434,188.832L64.037,63.435H-60.654l-128.779,125.406v3.349
			c48.345,47.504,114.621,76.818,187.754,76.818C73.161,269.008,140.822,238.309,189.434,188.832z"/>
	</g>
</g>
<text id="name" transform="matrix(1 0 0 1 -311.5391 307.4434)" fill="#FFFFFF" font-family="'Helvetica'" font-size="111.852"> </text>
<text id="number" transform="matrix(1 0 0 1 -337.3008 593.4873)" fill="#FFFFFF" font-family="'Helvetica'" font-size="297.3423"> </text>
</svg>
